<svg width="236" height="236" viewBox="0 0 236 236" fill="none" xmlns="http://www.w3.org/2000/svg">
<path d="M39.7355 46.8043C45.8078 46.8043 50.7488 41.8632 50.7488 35.7909C50.7488 29.7186 45.8078 24.7776 39.7355 24.7776C33.6632 24.7776 28.7222 29.7186 28.7222 35.7909C28.7222 41.8632 33.6632 46.8043 39.7355 46.8043V46.8043ZM39.7355 31.0709C42.3386 31.0709 44.4555 33.1878 44.4555 35.7909C44.4555 38.394 42.3386 40.5109 39.7355 40.5109C37.1324 40.5109 35.0155 38.394 35.0155 35.7909C35.0155 33.1878 37.1332 31.0709 39.7355 31.0709Z" fill="#999999"/>
<path d="M182.909 89.2843C182.909 95.3566 187.85 100.298 193.922 100.298C199.994 100.298 204.935 95.3566 204.935 89.2843C204.935 83.212 199.994 78.271 193.922 78.271C187.85 78.271 182.909 83.212 182.909 89.2843V89.2843ZM193.922 84.5643C196.525 84.5643 198.642 86.6812 198.642 89.2843C198.642 91.8874 196.525 94.0043 193.922 94.0043C191.319 94.0043 189.202 91.8874 189.202 89.2843C189.202 86.6812 191.32 84.5643 193.922 84.5643Z" fill="#999999"/>
<path d="M206.509 55.0872C208.476 55.0872 210.071 53.492 210.071 51.5244C210.071 49.5567 208.476 47.9615 206.509 47.9615C204.541 47.9615 202.946 49.5567 202.946 51.5244C202.946 53.492 204.541 55.0872 206.509 55.0872Z" fill="#999999"/>
<path d="M55.4686 67.6738C57.4363 67.6738 59.0314 66.0787 59.0314 64.111C59.0314 62.1433 57.4363 60.5482 55.4686 60.5482C53.5009 60.5482 51.9058 62.1433 51.9058 64.111C51.9058 66.0787 53.5009 67.6738 55.4686 67.6738Z" fill="#999999"/>
<path d="M171.757 40.6495C172.371 41.2639 173.177 41.5714 173.982 41.5714C174.786 41.5714 175.592 41.2639 176.206 40.6495L179.762 37.0937L183.318 40.6495C183.932 41.2639 184.738 41.5714 185.543 41.5714C186.347 41.5714 187.153 41.2639 187.767 40.6495C188.996 39.4207 188.996 37.4289 187.767 36.2001L184.212 32.6444L187.767 29.0886C188.996 27.8598 188.996 25.868 187.767 24.6392C186.538 23.4105 184.547 23.4105 183.318 24.6392L179.762 28.195L176.206 24.6392C174.978 23.4105 172.986 23.4105 171.757 24.6392C170.528 25.868 170.528 27.8598 171.757 29.0886L175.313 32.6444L171.757 36.2001C170.528 37.4289 170.528 39.4199 171.757 40.6495V40.6495Z" fill="#999999"/>
<path d="M27.01 106.729C27.6243 107.344 28.4299 107.651 29.2347 107.651C30.0394 107.651 30.845 107.344 31.4593 106.729L35.0151 103.174L38.5708 106.729C39.1852 107.344 39.9907 107.651 40.7955 107.651C41.6003 107.651 42.4058 107.344 43.0202 106.729C44.249 105.501 44.249 103.509 43.0202 102.28L39.4645 98.7243L43.0202 95.1686C44.249 93.9398 44.249 91.948 43.0202 90.7192C41.7914 89.4904 39.7996 89.4904 38.5708 90.7192L35.0151 94.2749L31.4593 90.7192C30.2306 89.4904 28.2387 89.4904 27.01 90.7192C25.7812 91.948 25.7812 93.9398 27.01 95.1686L30.5657 98.7243L27.01 102.28C25.7812 103.509 25.7812 105.5 27.01 106.729V106.729Z" fill="#999999"/>
<path d="M134.135 108.164C135.873 108.164 137.282 106.755 137.282 105.018C137.282 103.28 135.873 101.871 134.135 101.871C132.398 101.871 130.989 103.28 130.989 105.018C130.989 106.755 132.398 108.164 134.135 108.164Z" fill="#999999"/>
<path d="M102.669 108.164C104.406 108.164 105.815 106.755 105.815 105.018C105.815 103.28 104.406 101.871 102.669 101.871C100.931 101.871 99.522 103.28 99.522 105.018C99.522 106.755 100.931 108.164 102.669 108.164Z" fill="#999999"/>
<path d="M206.205 155.573C202.213 152.576 201.878 147.737 201.491 142.135C200.885 133.401 200.133 122.536 182.682 120.354C173.789 119.251 164.973 122.099 157.844 128.389C151.919 133.622 147.734 140.76 145.785 148.479L133.518 142.906V140.367C133.518 140.338 133.503 140.314 133.502 140.285C145.545 134.53 154.701 123.809 158.416 110.883C160.508 110.938 162.435 110.376 164.337 109.19C167.256 107.368 169.232 104.406 169.619 101.259C170.01 98.1059 169.033 94.9443 166.946 92.5811C165.511 90.9614 163.649 89.8152 161.602 89.2536C161.596 88.7005 161.574 86.6898 161.567 86.4805C161.724 86.1029 161.839 72.4551 161.839 72.4551C162.568 72.3685 163.277 72.2364 163.947 72.0043C166.307 71.1901 168.108 69.5184 169.294 67.0389H169.298C173.391 58.4847 166.076 46.3661 152.179 37.0362C153.153 34.5708 153.254 31.8819 152.366 29.3615C151.386 26.5869 149.389 24.3591 146.737 23.0894C144.085 21.8142 141.098 21.6545 138.317 22.6315C135.793 23.5228 133.762 25.2865 132.452 27.5883C116.472 22.6079 102.444 24.5038 98.345 33.058C97.4222 34.9853 97.2232 36.9992 97.6708 38.9494C84.2039 45.1066 76.8241 56.7477 76.8808 71.9398L76.9209 77.1357C76.9516 80.0763 77.0295 85.5853 77.0877 85.8315C77.0869 85.8772 77.1199 88.4779 77.1199 89.2465C75.2272 89.7594 73.5028 90.7765 72.1018 92.2271C70.0093 94.3999 68.915 97.2579 69.0228 100.275C69.1392 103.642 71.0508 106.894 74.1298 108.971C76.0752 110.284 78.0262 110.925 80.1462 110.892C83.4377 122.916 91.4192 133.006 102.068 139.133C102.068 139.16 102.053 139.182 102.053 139.208V142.905L76.9752 154.302C65.4489 159.541 58 171.249 58 184.125V210.008C58 211.747 59.4073 213.154 61.1467 213.154H174.427C176.166 213.154 177.573 211.747 177.573 210.008V195.52C179.123 195.715 180.692 195.848 182.293 195.848C196.192 195.848 210.93 186.853 214.479 176.209C215.915 171.896 216.751 163.483 206.205 155.573V155.573ZM140.407 28.5693C141.6 28.1516 142.878 28.2247 144.012 28.7628C145.905 29.6714 146.895 31.6798 146.63 33.6527C145.342 32.9439 144.022 32.254 142.653 31.5987C141.298 30.9497 139.945 30.3574 138.598 29.8028C139.106 29.2686 139.693 28.8202 140.407 28.5693V28.5693ZM104.018 35.7752C105.434 32.822 109.856 31.1039 116.058 31.1039C122.538 31.1039 130.964 32.9786 139.937 37.2745C157.495 45.6879 166.508 58.2809 163.617 64.3225C163.04 65.53 162.391 65.8833 161.89 66.0587C158.228 67.3126 149.54 63.0135 140.322 58.4658C138.057 57.3471 135.682 56.1734 133.198 54.984C130.761 53.8166 128.346 52.6948 126.004 51.6068C115.842 46.8837 105.338 41.9977 103.849 37.8465C103.603 37.1605 103.652 36.5398 104.018 35.7752V35.7752ZM100.869 44.3986C105.283 48.9054 113.521 52.7443 123.349 57.3133C125.672 58.3918 128.066 59.5042 130.481 60.6629C132.939 61.8398 135.293 63.0017 137.537 64.1077C144.678 67.6352 150.61 70.5561 155.544 71.8454V83.7437C146.129 90.8237 135.481 93.5063 125.417 91.306C116.395 89.3361 108.913 83.6179 104.893 75.619C104.435 74.7097 103.565 74.0764 102.561 73.923C101.55 73.7601 100.533 74.1071 99.8255 74.8387C95.7663 79.0174 89.8388 81.5285 83.2473 81.9399C83.2441 80.4216 83.226 78.7689 83.2103 77.0752L83.1702 71.9154C83.1112 55.6991 92.5732 48.0212 100.869 44.3986ZM85.6018 106.667C85.4208 105.785 84.8702 105.023 84.0898 104.572C83.3094 104.123 82.3717 104.037 81.515 104.317C80.2981 104.731 79.1731 104.787 77.6494 103.754C76.2546 102.814 75.357 101.394 75.3075 100.051C75.261 98.7549 75.7315 97.5285 76.6291 96.5971C77.5266 95.6688 78.731 95.1559 80.0243 95.1559C80.8755 95.1559 81.7235 94.7933 82.3167 94.1852C83.1906 93.2868 83.4605 92.5159 83.4062 88.2214C90.1377 87.8438 96.383 85.6483 101.277 81.9305C106.424 89.8003 114.539 95.3746 124.075 97.4545C126.828 98.0571 129.609 98.3553 132.396 98.3553C140.222 98.3529 148.071 95.9701 155.377 91.4334C155.496 92.8714 155.783 93.5598 156.42 94.2033C157.01 94.8027 157.848 95.1559 158.691 95.1559C160.043 95.1559 161.333 95.7365 162.228 96.7505C163.137 97.7771 163.543 99.1042 163.374 100.49C163.214 101.769 162.329 103.023 161.008 103.849C159.68 104.676 158.556 104.802 157.133 104.301C156.285 103.99 155.341 104.08 154.555 104.516C153.765 104.955 153.202 105.714 153.009 106.596C149.945 120.664 139.547 132.157 125.869 136.588L124.48 137.043C120.568 138.312 116.57 138.358 112.925 137.181C99.0121 132.704 88.5423 121.011 85.6018 106.667V106.667ZM110.996 143.173C113.381 143.942 115.861 144.323 118.377 144.323C121.048 144.323 123.755 143.892 126.423 143.029L127.225 142.767V143.929C127.225 149.135 122.99 153.369 117.785 153.369C112.58 153.369 108.345 149.135 108.345 143.929V142.13C109.229 142.476 110.084 142.88 110.996 143.173V143.173ZM171.278 206.863H152.398V191.129C152.398 189.39 150.99 187.983 149.251 187.983C147.512 187.983 146.104 189.39 146.104 191.129V206.863H86.3176V191.129C86.3176 189.39 84.9103 187.983 83.171 187.983C81.4317 187.983 80.0243 189.39 80.0243 191.129V206.863H64.291V184.126C64.291 173.712 70.2925 164.254 79.5791 160.032L103.074 149.354C105.294 155.352 111.024 159.663 117.784 159.663C124.546 159.663 130.274 155.352 132.495 149.353L144.706 154.902C144.618 155.962 144.531 157.023 144.531 158.089C144.531 175.08 155.813 189.476 171.278 194.201V206.863ZM208.506 174.219C205.83 182.245 193.335 189.556 182.291 189.556C164.941 189.556 150.824 175.439 150.824 158.089C150.824 148.628 155.006 139.289 162.01 133.109C166.964 128.736 172.885 126.413 178.945 126.413C179.928 126.413 180.914 126.475 181.901 126.597C194.214 128.137 194.632 134.19 195.213 142.568C195.643 148.809 196.132 155.883 202.431 160.606C208.064 164.831 210.108 169.413 208.506 174.219V174.219Z" fill="#999999"/>
<path d="M193.922 161.787C188.787 161.787 184.611 165.963 184.611 171.098C184.611 176.229 188.787 180.405 193.922 180.405C199.056 180.405 203.233 176.229 203.233 171.098C203.233 165.963 199.057 161.787 193.922 161.787V161.787ZM193.922 174.112C192.26 174.112 190.904 172.76 190.904 171.098C190.904 169.435 192.26 168.08 193.922 168.08C195.584 168.08 196.939 169.435 196.939 171.098C196.939 172.76 195.584 174.112 193.922 174.112Z" fill="#999999"/>
<path d="M175.042 131.396C170.5 131.396 166.806 135.089 166.806 139.631C166.806 144.173 170.5 147.867 175.042 147.867C179.584 147.867 183.277 144.173 183.277 139.631C183.277 135.089 179.584 131.396 175.042 131.396ZM175.042 141.573C173.973 141.573 173.099 140.701 173.099 139.631C173.099 138.561 173.972 137.689 175.042 137.689C176.112 137.689 176.984 138.561 176.984 139.631C176.984 140.701 176.112 141.573 175.042 141.573Z" fill="#999999"/>
<path d="M169.118 156.938C169.118 152.396 165.424 148.702 160.882 148.702C156.34 148.702 152.646 152.395 152.646 156.938C152.646 161.48 156.34 165.173 160.882 165.173C165.424 165.173 169.118 161.48 169.118 156.938ZM160.882 158.88C159.813 158.88 158.94 158.007 158.94 156.938C158.94 155.868 159.812 154.995 160.882 154.995C161.952 154.995 162.824 155.868 162.824 156.938C162.824 158.007 161.952 158.88 160.882 158.88Z" fill="#999999"/>
<path d="M171.895 169.155C167.354 169.155 163.66 172.849 163.66 177.391C163.66 181.933 167.353 185.626 171.895 185.626C176.437 185.626 180.131 181.933 180.131 177.391C180.131 172.849 176.437 169.155 171.895 169.155ZM171.895 179.333C170.826 179.333 169.953 178.461 169.953 177.391C169.953 176.321 170.825 175.449 171.895 175.449C172.965 175.449 173.838 176.321 173.838 177.391C173.838 178.461 172.965 179.333 171.895 179.333Z" fill="#999999"/>
<path d="M48.3028 136.131C47.7191 135.554 47.126 134.967 46.5486 134.361C46.5478 134.36 46.547 134.36 46.547 134.359C46.5462 134.359 46.5462 134.359 46.5462 134.358C44.1343 131.835 42.5271 129.536 42.5271 126.528C42.5271 122.53 40.4527 121.433 39.2145 121.136C34.3073 119.894 28.5607 129.525 25.5737 135.348C23.7793 138.847 21.6372 143.746 21.6372 147.209C21.6372 153.315 25.0049 158.599 29.9444 161.459L28.1241 201.882C27.9762 205.148 29.12 208.308 31.2613 210.545C33.1296 212.502 35.5817 213.578 38.1627 213.578C40.7438 213.578 43.1958 212.502 45.0641 210.545C47.2062 208.308 48.3493 205.149 48.2014 201.882L46.381 161.459C51.3205 158.598 54.689 153.314 54.689 147.209C54.6882 142.455 51.2953 139.094 48.3028 136.131V136.131ZM36.5642 129.622C37.1479 132.256 38.4294 134.447 39.9138 136.333C38.8015 137.16 37.7041 137.596 36.6319 137.639C35.1875 137.633 33.6205 136.966 32.3422 136.041C33.8659 133.334 35.363 131.15 36.5642 129.622ZM41.9143 202.165C41.9851 203.722 41.4746 205.195 40.5164 206.196C40.0428 206.694 39.2475 207.284 38.1627 207.284C37.0779 207.284 36.2818 206.694 35.809 206.196C34.8501 205.195 34.3403 203.722 34.4111 202.165L36.1504 163.531C36.8175 163.613 37.4736 163.735 38.1627 163.735C38.8518 163.735 39.5079 163.614 40.175 163.531L41.9143 202.165ZM38.1619 157.442C32.52 157.442 27.929 152.851 27.929 147.209C27.929 146.317 28.3962 144.42 29.5495 141.686C31.8151 143.136 34.12 143.936 36.447 143.936C36.5886 143.936 36.7294 143.932 36.8742 143.926C39.4513 143.827 41.9088 142.815 44.2161 140.941C46.4904 143.2 48.3949 145.181 48.3949 147.208C48.3949 152.851 43.8039 157.442 38.1619 157.442Z" fill="#999999"/>
</svg>
