<svg width="23" height="19" viewBox="0 0 23 19" fill="none" xmlns="http://www.w3.org/2000/svg">
<path fill-rule="evenodd" clip-rule="evenodd" d="M2.05272 7.7889L13.7163 2.7649C19.2706 0.454701 20.4246 0.0534209 21.1769 0.0401809C21.3424 0.0372609 21.7123 0.0782604 21.9519 0.2727C22.1543 0.436861 22.2099 0.658701 22.2366 0.814301C22.2632 0.969901 22.2964 1.32458 22.27 1.60166C21.969 4.76406 20.6666 12.4386 20.0041 15.9806C19.7237 17.4794 19.1721 17.9819 18.6373 18.0311C17.4758 18.138 16.5939 17.2635 15.469 16.5261L11.0056 13.528C9.03096 12.2268 10.311 11.5116 11.4364 10.3428C11.7309 10.0368 16.8482 5.38226 16.9472 4.96002C16.9592 4.90722 16.9711 4.71042 16.8542 4.60642C16.7372 4.50242 16.5646 4.53842 16.44 4.5663C16.2635 4.60638 13.4515 6.46502 8.00396 10.1423C7.20576 10.6904 6.48276 10.9575 5.83504 10.9435C5.12092 10.9281 3.74728 10.5397 2.72612 10.2078C1.4736 9.80066 0.478116 9.58538 0.564836 8.89394C0.609957 8.53382 1.10592 8.16554 2.05268 7.78898L2.05272 7.7889Z" fill="white"/>
</svg>
